<svg width="78" height="63" xmlns="http://www.w3.org/2000/svg"><g fill="#0070B9" fill-rule="evenodd"><path d="M19.064 22.582c-1.152 0-2.038-.354-2.657-1.064v.4c0 2.28-.671 4.063-2.01 5.347-1.34 1.284-3.27 1.927-5.796 1.927-1.193 0-2.273-.163-3.237-.484-.963-.32-1.783-.791-2.458-1.41a6.422 6.422 0 01-1.576-2.274c-.377-.898-.565-1.933-.565-3.107 0-1.307.215-2.562.646-3.769.434-1.206.937-2.218 1.511-3.038.091-.156.243-.165.467-.033l1.826.996c.179.11.21.256.101.431-.4.62-.782 1.385-1.149 2.293a7.62 7.62 0 00-.547 2.854c0 .954.162 1.745.483 2.374.32.633.736 1.132 1.245 1.495a4.953 4.953 0 001.66.782 6.953 6.953 0 001.762.233c1.414 0 2.578-.366 3.486-1.096.908-.733 1.362-1.916 1.362-3.554v-9.697c0-.221.11-.335.331-.335h2.124c.224 0 .334.114.334.335v5.679c0 .706.276 1.239.83 1.592.552.357 1.272.532 2.157.532h.766c.554 0 .956-.127 1.213-.38.252-.256.379-.717.379-1.378v-6.045c0-.221.114-.335.334-.335h2.124c.22 0 .335.114.335.335v5.679c0 .706.275 1.239.83 1.592.551.357 1.27.532 2.156.532h.766c.551 0 .956-.127 1.213-.38.253-.256.379-.717.379-1.378V9.33c0-.22.11-.33.334-.33h2.125c.22 0 .33.11.33.33v9.068c0 1.44-.298 2.498-.895 3.172-.597.675-1.596 1.012-2.99 1.012H27.2c-.71 0-1.33-.143-1.862-.431a2.91 2.91 0 01-1.226-1.294c-.555 1.151-1.706 1.725-3.454 1.725h-1.595zM39.453 22.251c0 .22-.11.331-.33.331h-2.128c-.22 0-.33-.11-.33-.33V.33c0-.221.11-.331.33-.331h2.128c.22 0 .33.11.33.33v21.921zM41.61 29.192c-.22 0-.33-.11-.33-.334V26.93c0-.22.11-.33.33-.33h.766c1.793 0 2.688-.941 2.688-2.822V9.33c0-.221.11-.331.334-.331h2.124c.22 0 .335.11.335.33v8.404c0 .752.269 1.316.81 1.693.545.376 1.269.564 2.176.564h.367c.441 0 .775.094.995.282.22.188.331.506.331.947 0 .577-.103.947-.314 1.112-.211.166-.548.25-1.012.25h-.697c-1.151 0-2.037-.354-2.656-1.064v2.193c0 1.793-.455 3.155-1.363 4.086-.907.927-2.238 1.395-3.986 1.395h-.898z"/><path d="M57.388 5.711c-.224 0-.334-.11-.334-.331V2.954c0-.22.11-.33.334-.33h2.257c.22 0 .331.11.331.33V5.38c0 .22-.11.331-.33.331h-2.258zm-4.054 0c-.22 0-.33-.11-.33-.331V2.954c0-.22.11-.33.33-.33h2.26c.221 0 .331.11.331.33V5.38c0 .22-.11.331-.33.331h-2.261zM51.21 22.582c-.441 0-.775-.078-.995-.233-.222-.153-.335-.465-.335-.928 0-.555.107-.931.318-1.132.21-.198.548-.298 1.012-.298h2.293c.551 0 .956-.127 1.21-.38.255-.256.382-.717.382-1.378V9.33c0-.22.11-.33.331-.33h2.127c.221 0 .331.11.331.33v9.068c0 1.44-.298 2.498-.895 3.172-.6.675-1.595 1.012-2.99 1.012h-2.79zM7.044 62.434c-.223 0-.334-.11-.334-.33V42.805c0-.133-.068-.198-.2-.198H.333c-.224 0-.334-.11-.334-.334v-2.091c0-.221.11-.331.334-.331h15.74c.223 0 .333.11.333.33v2.092c0 .224-.11.334-.333.334H9.899c-.133 0-.202.065-.202.198v19.297c0 .22-.11.331-.334.331H7.044zM28.959 53.068c.133 0 .2-.065.2-.198 0-.723-.077-1.317-.233-1.78-.266-.789-.713-1.398-1.346-1.83-.629-.428-1.401-.642-2.31-.642-.907 0-1.676.214-2.305.642-.632.432-1.08 1.041-1.346 1.83-.155.463-.234 1.057-.234 1.78 0 .133.069.198.202.198h7.372zm-3.52 9.733c-1.618 0-2.973-.374-4.07-1.113-1.096-.743-1.864-1.81-2.305-3.208a8.85 8.85 0 01-.4-1.692c-.09-.62-.132-1.395-.132-2.326 0-.927.039-1.709.116-2.341.075-.63.205-1.187.38-1.677.444-1.394 1.213-2.455 2.31-3.188 1.095-.73 2.405-1.096 3.933-1.096 1.527 0 2.84.373 3.937 1.112 1.096.743 1.865 1.8 2.31 3.172a7 7 0 01.213.814c.056.28.104.594.15.947.045.353.077.76.1 1.213.023.454.033.98.033 1.576 0 .224-.12.334-.364.334H21.587c-.133 0-.202.065-.202.198 0 .444.024.807.069 1.097.042.288.11.564.198.83.311.93.807 1.621 1.494 2.075.688.454 1.529.681 2.524.681.954 0 1.761-.165 2.426-.499a5.324 5.324 0 001.66-1.262c.175-.175.344-.198.496-.064l1.363 1.228c.155.133.165.286.035.464-.645.798-1.491 1.45-2.542 1.96-1.051.509-2.274.765-3.668.765zM36.499 62.434c-.22 0-.33-.11-.33-.33V46.856c0-.22.11-.33.33-.33h2.124c.224 0 .334.11.334.33v1.628h.033a4.25 4.25 0 011.576-1.677c.7-.43 1.58-.648 2.643-.648.64 0 1.246.107 1.81.318a4.239 4.239 0 011.443.879c.156.155.178.31.068.463l-1.23 1.628c-.132.179-.288.202-.466.068a5.128 5.128 0 00-1.161-.564c-.4-.133-.83-.2-1.294-.2-1.22 0-2.096.427-2.624 1.277-.532.853-.798 1.979-.798 3.373v8.701c0 .22-.11.331-.334.331H36.5zM53.85 60.407c1.265 0 2.257-.27 2.967-.814.714-.541 1.067-1.31 1.067-2.306v-1.761c0-.133-.065-.198-.198-.198h-3.204c-1.4 0-2.412.205-3.036.614-.622.408-.933 1.07-.933 1.975 0 .82.288 1.44.866 1.861.58.422 1.4.629 2.47.629zm4.43 2.027c-.22 0-.327-.11-.327-.331v-1.394h-.033c-.38.596-.954 1.093-1.729 1.492-.775.399-1.77.6-2.986.6-.756 0-1.457-.1-2.112-.302A4.747 4.747 0 0149.4 61.6a4.222 4.222 0 01-1.128-1.501c-.28-.6-.416-1.297-.416-2.098 0-1.69.549-2.932 1.645-3.733 1.096-.798 2.616-1.2 4.566-1.2h3.62c.132 0 .197-.065.197-.198V51.72c0-1.1-.265-1.891-.794-2.374-.532-.484-1.54-.727-3.023-.727-.908 0-1.66.107-2.26.314a6.396 6.396 0 00-1.593.815c-.197.156-.353.146-.464-.033l-.898-1.527c-.088-.179-.065-.33.068-.464.597-.467 1.35-.843 2.258-1.129.908-.288 1.958-.435 3.155-.435 2.257 0 3.856.416 4.797 1.246.94.83 1.413 2.221 1.413 4.171v10.527c0 .221-.11.331-.33.331H58.28zM71.035 62.8c-.775 0-1.495-.074-2.156-.217a9.684 9.684 0 01-1.81-.564 9.796 9.796 0 01-1.463-.765 9.593 9.593 0 01-1.145-.847c-.155-.152-.155-.308 0-.464l1.363-1.462c.152-.153.308-.153.463 0 .597.512 1.324.944 2.176 1.297a7.07 7.07 0 002.738.532c1.174 0 2.05-.228 2.624-.681.577-.454.865-1.035.865-1.745 0-.62-.207-1.112-.616-1.479-.408-.363-1.232-.613-2.475-.746l-1.692-.166c-1.573-.178-2.757-.641-3.555-1.394-.795-.753-1.193-1.784-1.193-3.09 0-1.528.515-2.715 1.544-3.568 1.027-.853 2.484-1.282 4.368-1.282 1.171 0 2.241.17 3.205.5.963.331 1.776.753 2.438 1.262.178.11.201.266.068.464l-1.128 1.43c-.133.156-.289.178-.468.064-.508-.33-1.144-.629-1.91-.894a7.147 7.147 0 00-2.374-.4c-.995 0-1.748.205-2.257.614-.51.411-.766.937-.766 1.579 0 .642.225 1.135.669 1.476.444.343 1.265.57 2.465.681l1.667.169c1.62.152 2.827.619 3.616 1.394.788.775 1.184 1.803 1.184 3.088 0 1.572-.555 2.834-1.661 3.784-1.11.954-2.702 1.43-4.784 1.43"/></g></svg>